<mxfile host="app.diagrams.net" agent="Mozilla/5.0 (Macintosh; Intel Mac OS X 10_15_7) AppleWebKit/605.1.15 (KHTML, like Gecko) Version/18.0 Safari/605.1.15" version="24.7.16">
  <diagram name="Página-1" id="zNyg_zG-mGnryXh890e0">
    <mxGraphModel dx="1640" dy="1073" grid="1" gridSize="10" guides="1" tooltips="1" connect="1" arrows="1" fold="1" page="1" pageScale="1" pageWidth="827" pageHeight="1169" math="0" shadow="0">
      <root>
        <mxCell id="0" />
        <mxCell id="1" parent="0" />
        <mxCell id="3bhcFRt9SRyYGMrg-e0I-1" value="USUARIOS" style="rounded=0;whiteSpace=wrap;html=1;" vertex="1" parent="1">
          <mxGeometry x="124" y="410" width="80" height="30" as="geometry" />
        </mxCell>
        <mxCell id="3bhcFRt9SRyYGMrg-e0I-2" value="CANCIONES" style="rounded=0;whiteSpace=wrap;html=1;" vertex="1" parent="1">
          <mxGeometry x="534" y="420" width="100" height="30" as="geometry" />
        </mxCell>
        <mxCell id="3bhcFRt9SRyYGMrg-e0I-3" value="AGRUPAN" style="rhombus;whiteSpace=wrap;html=1;" vertex="1" parent="1">
          <mxGeometry x="549" y="500" width="70" height="60" as="geometry" />
        </mxCell>
        <mxCell id="3bhcFRt9SRyYGMrg-e0I-4" value="" style="endArrow=none;html=1;rounded=0;" edge="1" parent="1">
          <mxGeometry width="50" height="50" relative="1" as="geometry">
            <mxPoint x="584" y="500" as="sourcePoint" />
            <mxPoint x="584" y="450" as="targetPoint" />
          </mxGeometry>
        </mxCell>
        <mxCell id="3bhcFRt9SRyYGMrg-e0I-5" value="ALBUMES" style="rounded=0;whiteSpace=wrap;html=1;" vertex="1" parent="1">
          <mxGeometry x="539" y="610" width="90" height="30" as="geometry" />
        </mxCell>
        <mxCell id="3bhcFRt9SRyYGMrg-e0I-6" value="" style="endArrow=none;html=1;rounded=0;" edge="1" parent="1">
          <mxGeometry width="50" height="50" relative="1" as="geometry">
            <mxPoint x="583.5" y="610" as="sourcePoint" />
            <mxPoint x="583.5" y="560" as="targetPoint" />
          </mxGeometry>
        </mxCell>
        <mxCell id="3bhcFRt9SRyYGMrg-e0I-7" value="GRABADOS" style="rhombus;whiteSpace=wrap;html=1;" vertex="1" parent="1">
          <mxGeometry x="544" y="680" width="80" height="60" as="geometry" />
        </mxCell>
        <mxCell id="3bhcFRt9SRyYGMrg-e0I-8" value="" style="endArrow=none;html=1;rounded=0;exitX=0.5;exitY=0;exitDx=0;exitDy=0;" edge="1" parent="1" source="3bhcFRt9SRyYGMrg-e0I-7">
          <mxGeometry width="50" height="50" relative="1" as="geometry">
            <mxPoint x="534" y="690" as="sourcePoint" />
            <mxPoint x="584" y="640" as="targetPoint" />
          </mxGeometry>
        </mxCell>
        <mxCell id="3bhcFRt9SRyYGMrg-e0I-9" value="" style="endArrow=none;html=1;rounded=0;exitX=0;exitY=0.5;exitDx=0;exitDy=0;" edge="1" parent="1" source="3bhcFRt9SRyYGMrg-e0I-7" target="3bhcFRt9SRyYGMrg-e0I-10">
          <mxGeometry width="50" height="50" relative="1" as="geometry">
            <mxPoint x="414" y="710" as="sourcePoint" />
            <mxPoint x="544" y="710" as="targetPoint" />
          </mxGeometry>
        </mxCell>
        <mxCell id="3bhcFRt9SRyYGMrg-e0I-10" value="ARTISTAS" style="rounded=0;whiteSpace=wrap;html=1;" vertex="1" parent="1">
          <mxGeometry x="354" y="695" width="70" height="30" as="geometry" />
        </mxCell>
        <mxCell id="3bhcFRt9SRyYGMrg-e0I-11" value="" style="endArrow=none;html=1;rounded=0;" edge="1" parent="1">
          <mxGeometry width="50" height="50" relative="1" as="geometry">
            <mxPoint x="384" y="760" as="sourcePoint" />
            <mxPoint x="384" y="725" as="targetPoint" />
          </mxGeometry>
        </mxCell>
        <mxCell id="3bhcFRt9SRyYGMrg-e0I-12" value="" style="endArrow=none;html=1;rounded=0;" edge="1" parent="1">
          <mxGeometry width="50" height="50" relative="1" as="geometry">
            <mxPoint x="364" y="760" as="sourcePoint" />
            <mxPoint x="404" y="760" as="targetPoint" />
          </mxGeometry>
        </mxCell>
        <mxCell id="3bhcFRt9SRyYGMrg-e0I-13" value="" style="endArrow=none;html=1;rounded=0;" edge="1" parent="1">
          <mxGeometry width="50" height="50" relative="1" as="geometry">
            <mxPoint x="384" y="790" as="sourcePoint" />
            <mxPoint x="404" y="760" as="targetPoint" />
          </mxGeometry>
        </mxCell>
        <mxCell id="3bhcFRt9SRyYGMrg-e0I-14" value="" style="endArrow=none;html=1;rounded=0;" edge="1" parent="1">
          <mxGeometry width="50" height="50" relative="1" as="geometry">
            <mxPoint x="384" y="790" as="sourcePoint" />
            <mxPoint x="364" y="760" as="targetPoint" />
          </mxGeometry>
        </mxCell>
        <mxCell id="3bhcFRt9SRyYGMrg-e0I-15" value="PUEDEN SER" style="text;html=1;align=center;verticalAlign=middle;whiteSpace=wrap;rounded=0;" vertex="1" parent="1">
          <mxGeometry x="354" y="760" width="60" height="30" as="geometry" />
        </mxCell>
        <mxCell id="3bhcFRt9SRyYGMrg-e0I-16" value="" style="endArrow=none;html=1;rounded=0;entryX=0.833;entryY=0.667;entryDx=0;entryDy=0;entryPerimeter=0;" edge="1" parent="1" target="3bhcFRt9SRyYGMrg-e0I-15">
          <mxGeometry width="50" height="50" relative="1" as="geometry">
            <mxPoint x="494" y="890" as="sourcePoint" />
            <mxPoint x="594" y="835" as="targetPoint" />
          </mxGeometry>
        </mxCell>
        <mxCell id="3bhcFRt9SRyYGMrg-e0I-17" value="" style="endArrow=none;html=1;rounded=0;" edge="1" parent="1">
          <mxGeometry width="50" height="50" relative="1" as="geometry">
            <mxPoint x="364" y="775" as="sourcePoint" />
            <mxPoint x="254" y="890" as="targetPoint" />
          </mxGeometry>
        </mxCell>
        <mxCell id="3bhcFRt9SRyYGMrg-e0I-18" value="&lt;div&gt;GRUPO&lt;/div&gt;" style="rounded=0;whiteSpace=wrap;html=1;" vertex="1" parent="1">
          <mxGeometry x="214" y="890" width="80" height="20" as="geometry" />
        </mxCell>
        <mxCell id="3bhcFRt9SRyYGMrg-e0I-19" value="SOLISTA" style="rounded=0;whiteSpace=wrap;html=1;" vertex="1" parent="1">
          <mxGeometry x="449" y="890" width="95" height="25" as="geometry" />
        </mxCell>
        <mxCell id="3bhcFRt9SRyYGMrg-e0I-20" value="DISCOS" style="rounded=0;whiteSpace=wrap;html=1;" vertex="1" parent="1">
          <mxGeometry x="114" y="580" width="100" height="30" as="geometry" />
        </mxCell>
        <mxCell id="3bhcFRt9SRyYGMrg-e0I-21" value="" style="endArrow=none;html=1;rounded=0;" edge="1" parent="1">
          <mxGeometry width="50" height="50" relative="1" as="geometry">
            <mxPoint x="164" y="480" as="sourcePoint" />
            <mxPoint x="164" y="440" as="targetPoint" />
          </mxGeometry>
        </mxCell>
        <mxCell id="3bhcFRt9SRyYGMrg-e0I-22" value="POSEEN" style="rhombus;whiteSpace=wrap;html=1;" vertex="1" parent="1">
          <mxGeometry x="129" y="480" width="70" height="60" as="geometry" />
        </mxCell>
        <mxCell id="3bhcFRt9SRyYGMrg-e0I-23" value="" style="endArrow=none;html=1;rounded=0;" edge="1" parent="1">
          <mxGeometry width="50" height="50" relative="1" as="geometry">
            <mxPoint x="163.5" y="580" as="sourcePoint" />
            <mxPoint x="163.5" y="540" as="targetPoint" />
          </mxGeometry>
        </mxCell>
        <mxCell id="3bhcFRt9SRyYGMrg-e0I-24" value="" style="endArrow=none;html=1;rounded=0;" edge="1" parent="1">
          <mxGeometry width="50" height="50" relative="1" as="geometry">
            <mxPoint x="164" y="650" as="sourcePoint" />
            <mxPoint x="164" y="610" as="targetPoint" />
          </mxGeometry>
        </mxCell>
        <mxCell id="3bhcFRt9SRyYGMrg-e0I-25" value="TIENEN" style="rhombus;whiteSpace=wrap;html=1;" vertex="1" parent="1">
          <mxGeometry x="134" y="640" width="60" height="60" as="geometry" />
        </mxCell>
        <mxCell id="3bhcFRt9SRyYGMrg-e0I-26" value="" style="endArrow=none;html=1;rounded=0;" edge="1" parent="1">
          <mxGeometry width="50" height="50" relative="1" as="geometry">
            <mxPoint x="164" y="730" as="sourcePoint" />
            <mxPoint x="164" y="700" as="targetPoint" />
          </mxGeometry>
        </mxCell>
        <mxCell id="3bhcFRt9SRyYGMrg-e0I-27" value="EDICIONES" style="rounded=0;whiteSpace=wrap;html=1;" vertex="1" parent="1">
          <mxGeometry x="114" y="730" width="100" height="30" as="geometry" />
        </mxCell>
        <mxCell id="3bhcFRt9SRyYGMrg-e0I-28" value="" style="endArrow=none;html=1;rounded=0;" edge="1" parent="1">
          <mxGeometry width="50" height="50" relative="1" as="geometry">
            <mxPoint x="551.5" y="420" as="sourcePoint" />
            <mxPoint x="586" y="395" as="targetPoint" />
          </mxGeometry>
        </mxCell>
        <mxCell id="3bhcFRt9SRyYGMrg-e0I-29" value="TITULO" style="ellipse;whiteSpace=wrap;html=1;rotation=-20;" vertex="1" parent="1">
          <mxGeometry x="584" y="370" width="78.76" height="22.99" as="geometry" />
        </mxCell>
        <mxCell id="3bhcFRt9SRyYGMrg-e0I-30" value="DURACIÓN" style="ellipse;whiteSpace=wrap;html=1;rotation=-20;" vertex="1" parent="1">
          <mxGeometry x="654" y="370" width="78.76" height="22.99" as="geometry" />
        </mxCell>
        <mxCell id="3bhcFRt9SRyYGMrg-e0I-31" value="" style="endArrow=none;html=1;rounded=0;" edge="1" parent="1">
          <mxGeometry width="50" height="50" relative="1" as="geometry">
            <mxPoint x="624" y="417.99" as="sourcePoint" />
            <mxPoint x="658.5" y="392.99" as="targetPoint" />
          </mxGeometry>
        </mxCell>
        <mxCell id="3bhcFRt9SRyYGMrg-e0I-32" value="" style="endArrow=none;html=1;rounded=0;" edge="1" parent="1" target="3bhcFRt9SRyYGMrg-e0I-33">
          <mxGeometry width="50" height="50" relative="1" as="geometry">
            <mxPoint x="204" y="420" as="sourcePoint" />
            <mxPoint x="304" y="420" as="targetPoint" />
          </mxGeometry>
        </mxCell>
        <mxCell id="3bhcFRt9SRyYGMrg-e0I-33" value="ESCUCHAN" style="rhombus;whiteSpace=wrap;html=1;" vertex="1" parent="1">
          <mxGeometry x="314" y="392.99" width="110" height="50" as="geometry" />
        </mxCell>
        <mxCell id="3bhcFRt9SRyYGMrg-e0I-34" value="" style="endArrow=none;html=1;rounded=0;entryX=0;entryY=0.5;entryDx=0;entryDy=0;" edge="1" parent="1" target="3bhcFRt9SRyYGMrg-e0I-2">
          <mxGeometry width="50" height="50" relative="1" as="geometry">
            <mxPoint x="423" y="418.49" as="sourcePoint" />
            <mxPoint x="534" y="417.49" as="targetPoint" />
          </mxGeometry>
        </mxCell>
        <mxCell id="3bhcFRt9SRyYGMrg-e0I-35" value="" style="endArrow=none;html=1;rounded=0;" edge="1" parent="1">
          <mxGeometry width="50" height="50" relative="1" as="geometry">
            <mxPoint x="199" y="510" as="sourcePoint" />
            <mxPoint x="224" y="510" as="targetPoint" />
          </mxGeometry>
        </mxCell>
        <mxCell id="3bhcFRt9SRyYGMrg-e0I-36" value="COLECCIONES" style="rounded=0;whiteSpace=wrap;html=1;" vertex="1" parent="1">
          <mxGeometry x="224" y="495" width="110" height="25" as="geometry" />
        </mxCell>
        <mxCell id="3bhcFRt9SRyYGMrg-e0I-37" value="" style="endArrow=none;html=1;rounded=0;" edge="1" parent="1">
          <mxGeometry width="50" height="50" relative="1" as="geometry">
            <mxPoint x="164" y="410" as="sourcePoint" />
            <mxPoint x="180" y="380" as="targetPoint" />
          </mxGeometry>
        </mxCell>
        <mxCell id="3bhcFRt9SRyYGMrg-e0I-38" value="PUEDEN&amp;nbsp;" style="triangle;whiteSpace=wrap;html=1;rotation=-80;" vertex="1" parent="1">
          <mxGeometry x="164" y="312.99" width="60" height="80" as="geometry" />
        </mxCell>
        <mxCell id="3bhcFRt9SRyYGMrg-e0I-39" value="" style="endArrow=none;html=1;rounded=0;" edge="1" parent="1">
          <mxGeometry width="50" height="50" relative="1" as="geometry">
            <mxPoint x="214" y="350" as="sourcePoint" />
            <mxPoint x="340" y="230" as="targetPoint" />
          </mxGeometry>
        </mxCell>
        <mxCell id="3bhcFRt9SRyYGMrg-e0I-40" value="" style="endArrow=none;html=1;rounded=0;" edge="1" parent="1">
          <mxGeometry width="50" height="50" relative="1" as="geometry">
            <mxPoint x="174" y="350" as="sourcePoint" />
            <mxPoint x="150" y="190" as="targetPoint" />
          </mxGeometry>
        </mxCell>
        <mxCell id="3bhcFRt9SRyYGMrg-e0I-41" value="VENDER" style="rounded=0;whiteSpace=wrap;html=1;" vertex="1" parent="1">
          <mxGeometry x="94" y="150" width="120" height="40" as="geometry" />
        </mxCell>
        <mxCell id="3bhcFRt9SRyYGMrg-e0I-42" value="COMPRAR" style="rounded=0;whiteSpace=wrap;html=1;" vertex="1" parent="1">
          <mxGeometry x="274" y="190" width="150" height="40" as="geometry" />
        </mxCell>
      </root>
    </mxGraphModel>
  </diagram>
</mxfile>
